# AST/ASF file generated using VICON BodyLanguage
# -----------------------------------------------
:version 1.10
:name VICON
:units
  mass 1.0
  length 0.45
  angle deg
:documentation
   .ast/.asf automatically generated from VICON data using
   VICON BodyBuilder and BodyLanguage model FoxedUp or BRILLIANT.MOD
:root
   order TX TY TZ RX RY RZ
   axis XYZ
   position 0 0 0  
   orientation 0 0 0 
:bonedata
  begin
     id 1 
     name lhipjoint
     direction 0.521452 -0.77106 0.36545 
     length 2.0933 
     axis 0 0 0  XYZ
  end
  begin
     id 2 
     name lfemur
     direction 0.34202 -0.939693 0  
     length 6.83441  
     axis 0 0 20  XYZ
    dof rx ry rz
    limits (-160.0 20.0)
           (-70.0 70.0)
           (-60.0 70.0)
  end
  begin
     id 3 
     name ltibia
     direction 0.34202 -0.939693 0   
     length 7.28749   
     axis 0 0 20   XYZ
    dof rx
    limits (-10.0 170.0)
  end
  begin
     id 4 
     name lfoot
     direction 0.100608 -0.276418 0.955757   
     length 1.52195   
     axis -90 7.62852e-016 20   XYZ
    dof rx rz
    limits (-45.0 90.0)
           (-70.0 20.0)
  end
  begin
     id 5 
     name ltoes
     direction 1.53558e-011 -4.21907e-011 1   
     length 0.770459   
     axis -90 7.62852e-016 20   XYZ
    dof rx
    limits (-90.0 20.0)
  end
  begin
     id 6 
     name rhipjoint
     direction -0.488071 -0.788702 0.373812   
     length 2.04648  
     axis 0 0 0  XYZ 
  end
  begin
     id 7 
     name rfemur
     direction -0.34202 -0.939693 0   
     length 6.92583   
     axis 0 0 -20   XYZ
    dof rx ry rz
    limits (-160.0 20.0)
           (-70.0 70.0)
           (-70.0 60.0)
  end
  begin
     id 8 
     name rtibia
     direction -0.34202 -0.939693 0   
     length 7.41043   
     axis 0 0 -20   XYZ
    dof rx
    limits (-10.0 170.0)
 end
 begin
     id 9 
     name rfoot
     direction -0.0784433 -0.215521 0.973343   
     length 1.67708  
     axis -90 -7.62852e-016 -20   XYZ
    dof rx rz
    limits (-45.0 90.0)
           (-20.0 70.0)
  end
  begin
     id 10 
     name rtoes
     direction -1.53551e-011 -4.21842e-011 1   
     length 0.849787   
     axis -90 -7.62852e-016 -20   XYZ
    dof rx
    limits (-90.0 20.0)
  end
  begin
     id 11 
     name lowerback
     direction -0.0122332 0.997575 -0.0685192   
     length 1.98724   
     axis 0 0 0   XYZ
    dof rx ry rz
    limits (-20.0 45.0)
           (-30.0 30.0)
           (-30.0 30.0)
  end
  begin
     id 12 
     name upperback
     direction 0.0182347 0.999724 -0.0148421   
     length 1.99029   
     axis 0 0 0   XYZ
    dof rx ry rz
    limits (-20.0 45.0)
           (-30.0 30.0)
           (-30.0 30.0)
  end
  begin
     id 13 
     name thorax
     direction 0.0242908 0.99956 0.0170184   
     length 1.99573   
     axis 0 0 0   XYZ
    dof rx ry rz
    limits (-20.0 45.0)
           (-30.0 30.0)
           (-30.0 30.0)
  end
  begin
     id 14 
     name lowerneck
     direction 0.0654488 0.985533 0.156338   
     length 1.4285   
     axis 0 0 0   XYZ
    dof rx ry rz
    limits (-20.0 45.0)
           (-30.0 30.0)
           (-30.0 30.0)
  end
  begin
     id 15 
     name upperneck
     direction -0.02953 0.998556 -0.0448842   
     length 1.44709   
     axis 0 0 0   XYZ
    dof rx ry rz
    limits (-20.0 45.0)
           (-30.0 30.0)
           (-30.0 30.0)
  end
  begin
     id 16
     name head
     direction -0.0155588 0.999386 -0.0314063  
     length 1.44689  
     axis 0 0 0   XYZ
    dof rx ry rz
    limits (-20.0 45.0)
           (-30.0 30.0)
           (-30.0 30.0)
  end
  begin
     id 17 
     name lclavicle
     direction 0.968229 0.236071 -0.0824755  
     length 3.60593  
     axis 0 0 0   XYZ
    dof ry rz
    limits (-20.0 10.0)
           (0.0 20.0)
  end
  begin
     id 18 
     name lhumerus
     direction 1 -4.48968e-011 7.8138e-029   
     length 5.06035   
     axis 180 -30 -90   XYZ
    dof rx ry rz
    limits (-60.0 90.0)
           (-90.0 90.0)
           (-90.0 90.0)
  end
  begin
     id 19
     name lradius
     direction 1 -4.48967e-011 9.02887e-028   
     length 3.1478   
     axis 180 -30 -90   XYZ
    dof rx
    limits (-10.0 170.0)
  end
  begin
     id 20
     name lwrist
     direction 1 -4.48961e-011 7.20928e-028   
     length 1.5739   
     axis -5.52449e-016 90 90   XYZ
    dof ry
    limits (-180.0 0.0)
 end
  begin
     id 21 
     name lhand
     direction 1 -4.48972e-011 1.44186e-027   
     length 0.606747   
     axis -9.20027e-016 90 90   XYZ
    dof rx rz
    limits (-90.0 90.0)
           (-45.0 45.0)
  end
  begin
     id 22 
     name lfingers
     direction 1 -4.48943e-011 2.88371e-027   
     length 0.489175   
     axis -1.84005e-015 90 90   XYZ
    dof rx
    limits (0.0 90.0)
  end
  begin
     id 23
     name lthumb
     direction 0.707107 -6.34917e-011 0.707107   
     length 0.70236   
     axis -90 45 2.85299e-015   XYZ
    dof rx rz
    limits (-45.0 45.0)
           (-45.0 45.0)
  end
  begin
     id 24 
     name rclavicle
     direction -0.978165 0.207816 0.0022268   
     length 3.35425  
     axis 0 0 0   XYZ 
    dof ry rz
    limits (-10.0 20.0)
           (-20.0 0.0)
  end
  begin
     id 25 
     name rhumerus
     direction -1 -4.48964e-011 -4.02159e-027  
     length 5.12273   
     axis 180 30 90   XYZ
    dof rx ry rz
    limits (-90.0 60.0)
           (-90.0 90.0)
           (-90.0 90.0)
  end
  begin
     id 26 
     name rradius
     direction -1 -4.48966e-011 1.62746e-027   
     length 3.422   
     axis 180 30 90   XYZ
    dof rx
    limits (-10.0 170.0)
  end
  begin
     id 27 
     name rwrist
     direction -1 -4.4896e-011 7.20928e-028   
     length 1.711   
     axis -5.52449e-016 -90 -90   XYZ
    dof ry
    limits (-180.0 0.0)
  end
  begin
     id 28
     name rhand
     direction -1 -4.48979e-011 1.44186e-027   
     length 0.704599   
     axis -9.20027e-016 -90 -90   XYZ
    dof rx rz
    limits (-90.0 90.0)
           (-45.0 45.0)
  end
  begin
     id 29
     name rfingers
     direction -1 -4.48962e-011 2.88371e-027   
     length 0.568066   
     axis -1.84005e-015 -90 -90   XYZ
    dof rx
    limits (0.0 90.0)
  end
  begin
     id 30
     name rthumb
     direction -0.707107 -6.34949e-011 0.707107   
     length 0.815633   
     axis -90 -45 -2.85299e-015   XYZ
    dof rx rz
    limits (-45.0 45.0)
           (-45.0 45.0)
  end
:hierarchy
  begin
    root lhipjoint rhipjoint lowerback
    lhipjoint lfemur
    lfemur ltibia
    ltibia lfoot
    lfoot ltoes
    rhipjoint rfemur
    rfemur rtibia
    rtibia rfoot
    rfoot rtoes
    lowerback upperback
    upperback thorax
    thorax lowerneck lclavicle rclavicle
    lowerneck upperneck
    upperneck head
    lclavicle lhumerus
    lhumerus lradius
    lradius lwrist
    lwrist lhand lthumb
    lhand lfingers
    rclavicle rhumerus
    rhumerus rradius
    rradius rwrist
    rwrist rhand rthumb
    rhand rfingers
  end

#!OML:ASF E:\id_vita\Project 1\Capture day 1\Session 1\Male1.ASF
:FULLY-SPECIFIED
:DEGREES
242
root 22.0097 15.9659 -1.32066 733.367 82.2882 732.716
lowerback -4.17684 1.86165 -4.58607
upperback 0.252712 2.79158 -2.01539
thorax 2.48603 1.35565 0.665069
lowerneck -8.96541 2.00573 7.84632
upperneck 8.68836 1.676 0.31138
head 4.13867 1.12422 -1.06345
rclavicle 3.87506e-014 -1.74931e-014
rhumerus -18.0637 5.9335 -92.8314
rradius 34.6047
rwrist -3.39027
rhand -21.6984 38.541
rfingers 7.12502
rthumb 4.70002 8.61315
lclavicle 3.87506e-014 -1.74931e-014
lhumerus -137.209 17.0219 -81.3641
lradius 12.2403
lwrist -118.756
lhand -14.6555 41.808
lfingers 7.12502
lthumb 11.497 71.4727
rfemur 5.38425 2.27858 16.6228
rtibia 53.8156
rfoot 24.4398 10.0154
rtoes 5.14098
lfemur -25.0737 5.59625 -24.8733
ltibia 36.5403
lfoot -17.9953 -4.21055
ltoes 2.86859
243
root 22.2053 16.0057 -1.33845 736.271 82.3657 735.625
lowerback -4.13189 1.70025 -4.92556
upperback 0.196665 2.59019 -2.03453
thorax 2.3982 1.25441 0.819797
lowerneck -8.025 1.61597 8.96466
upperneck 7.20285 1.28194 -1.54091
head 3.92398 0.836037 -2.05681
rclavicle 2.24875e-014 -1.03368e-014
rhumerus -18.848 5.3445 -92.9591
rradius 33.4422
rwrist -3.07073
rhand -21.5759 38.3676
rfingers 7.12502
rthumb 4.81828 8.4424
lclavicle 2.24875e-014 -1.03368e-014
lhumerus -136.323 21.7685 -76.2861
lradius 11.4721
lwrist -112.817
lhand -14.4019 42.3819
lfingers 7.12502
lthumb 11.7416 72.0328
rfemur 3.72431 1.93037 16.0926
rtibia 56.1616
rfoot 24.9518 9.75185
rtoes 2.0911
lfemur -23.9936 5.19943 -25.3498
ltibia 36.1358
lfoot -18.5799 -3.7207
ltoes 1.58083
244
root 22.3955 16.0286 -1.35405 739.218 82.5066 738.504
lowerback -4.22648 1.52728 -5.24996
upperback 0.191535 2.38458 -2.04992
thorax 2.44424 1.14775 0.975726
lowerneck -8.06745 2.04452 7.8177
upperneck 7.18271 1.87908 -0.241482
head 3.91033 1.15834 -1.36443
rclavicle 7.32708e-015 -2.3059e-014
rhumerus -19.5214 4.46787 -92.9635
rradius 32.1945
rwrist -2.15534
rhand -21.4412 38.3144
rfingers 7.12502
rthumb 4.94834 8.39219
lclavicle 7.32708e-015 -2.3059e-014
lhumerus -134.607 27.3771 -70.0986
lradius 10.7671
lwrist -105.807
lhand -14.2664 42.832
lfingers 7.12502
lthumb 11.8722 72.4755
rfemur 2.03928 1.40341 15.5457
rtibia 58.2959
rfoot 23.6484 9.36772
rtoes -0.997302
lfemur -23.035 4.79659 -25.8016
ltibia 35.666
lfoot -19.0248 -3.33657
ltoes 0.123384
245
root 22.5858 16.0376 -1.36267 741.125 82.7514 740.45
lowerback -4.32629 1.38378 -5.40988
upperback 0.237371 2.21233 -2.05642
thorax 2.55168 1.0571 1.05182
lowerneck -8.1758 2.00646 7.86045
upperneck 7.41148 1.80326 -0.156699
head 4.00961 1.13343 -1.3481
rclavicle 2.13756e-014 -1.27222e-014
rhumerus -20.2366 3.24366 -92.8988
rradius 30.9181
rwrist -1.02881
rhand -21.3493 38.4751
rfingers 7.12502
rthumb 5.0371 8.55492
lclavicle 2.13756e-014 -1.27222e-014
lhumerus -131.474 33.8604 -62.3744
lradius 10.166
lwrist -97.6445
lhand -14.2246 43.2485
lfingers 7.12502
lthumb 11.9125 72.8896
rfemur 0.514103 0.825226 15.2521
rtibia 60.212
rfoot 22.0871 8.89486
rtoes -1.1218
lfemur -21.9899 4.53898 -26.0518
ltibia 35.1878
lfoot -19.5081 -3.13346
ltoes -0.753836
246
root 22.7741 16.0568 -1.37064 743.584 82.9619 742.96
lowerback -4.46545 1.22145 -5.62242
upperback 0.3238 2.02491 -2.09046
thorax 2.72456 0.956219 1.12883
lowerneck -8.18828 1.99384 7.94376
upperneck 7.4826 1.77259 -0.129571
head 4.03751 1.12463 -1.35591
rclavicle -2.842e-015 -3.18055e-015
rhumerus -20.7927 1.89487 -92.804
rradius 29.4749
rwrist 0.120737
rhand -21.228 38.1236
rfingers 7.12502
rthumb 5.15422 8.20632
lclavicle -2.842e-015 -3.18055e-015
lhumerus -128.305 38.714 -55.6828
lradius 9.6983
lwrist -91.494
lhand -14.384 43.2557
lfingers 7.12502
lthumb 11.7588 72.9056
rfemur -0.960245 0.390782 14.9866
rtibia 61.8781
rfoot 20.2505 8.08705
rtoes 2.60142
lfemur -20.9385 4.29067 -26.3526
ltibia 34.7366
lfoot -19.9224 -2.94796
ltoes -1.45502
247
root 22.9647 16.0824 -1.38598 747.26 83.1846 746.604
lowerback -4.61998 1.03611 -5.86675
upperback 0.323082 1.8071 -2.12983
thorax 2.81827 0.843127 1.21416
lowerneck -8.05818 2.03221 8.00437
upperneck 7.55358 1.8273 -0.109064
head 4.0405 1.15693 -1.35676
rclavicle -2.25279e-014 2.62396e-014
rhumerus -21.3187 0.493646 -92.5484
rradius 27.9119
rwrist 1.15793
rhand -21.0444 37.6227
rfingers 7.12502
rthumb 5.33146 7.70978
lclavicle -2.25279e-014 2.62396e-014
lhumerus -124.402 43.7384 -48.5689
lradius 9.50941
lwrist -85.3622
lhand -14.6006 43.2698
lfingers 7.12502
lthumb 11.55 72.9316
rfemur -2.42762 -0.107322 14.5658
rtibia 63.2641
rfoot 17.7369 7.43972
rtoes 6.70681
lfemur -19.93 3.91819 -26.8063
ltibia 34.251
lfoot -20.2795 -2.69753
ltoes -2.32144
248
root 23.1562 16.1072 -1.40236 750.262 83.4819 749.54
lowerback -4.65708 0.849927 -6.00486
upperback 0.128542 1.55872 -2.07875
thorax 2.64833 0.725186 1.32626
lowerneck -7.51422 2.0339 7.97236
upperneck 7.56281 1.88486 -0.0858695
head 3.93667 1.18592 -1.34071
rclavicle 1.66482e-015 7.95139e-016
rhumerus -22.2777 -0.972742 -92.1113
rradius 26.2084
rwrist 2.94889
rhand -21.663 37.8645
rfingers 7.12502
rthumb 4.73417 7.9374
lclavicle 1.66482e-015 7.95139e-016
lhumerus -119.227 48.8275 -40.6436
lradius 9.21808
lwrist -79.2085
lhand -14.8386 43.5745
lfingers 7.12502
lthumb 11.3205 73.249
rfemur -3.89314 -0.608194 14.3258
rtibia 64.3759
rfoot 14.8278 7.23667
rtoes 8.84235
lfemur -18.933 3.45842 -27.1302
ltibia 33.6699
lfoot -20.5324 -2.36826
ltoes -3.41211
249
root 23.3417 16.1381 -1.41559 752.272 83.878 751.469
lowerback -4.75003 0.625132 -6.04562
upperback 0.0416568 1.25894 -1.93857
thorax 2.62627 0.575897 1.47494
lowerneck -8.23873 1.87895 8.69055
upperneck 9.02579 1.62252 -1.31927
head 4.13818 1.043 -1.71007
rclavicle 1.6524e-014 -4.77083e-015
rhumerus -22.9488 -2.52411 -91.5359
rradius 24.496
rwrist 4.28505
rhand -21.4245 37.3316
rfingers 7.12502
rthumb 4.96451 7.40977
lclavicle 1.6524e-014 -4.77083e-015
lhumerus -112.489 53.1189 -31.1919
lradius 8.91188
lwrist -72.9223
lhand -14.7018 43.7708
lfingers 7.12502
lthumb 11.4523 73.438
rfemur -5.46097 -1.00291 14.4011
rtibia 65.2632
rfoot 11.8833 6.7836
rtoes 10.1383
lfemur -18.0201 3.02735 -27.2418
ltibia 33.1184
lfoot -20.7061 -2.15679
ltoes -4.43718
250
root 23.5263 16.1627 -1.42833 755.048 84.2337 754.224
lowerback -4.89608 0.422859 -6.09987
upperback 0.145475 1.00606 -1.8543
thorax 2.83119 0.440867 1.57776
lowerneck -7.07684 1.29411 9.58685
upperneck 7.5106 0.987836 -2.76905
head 3.46116 0.646168 -2.34093
rclavicle -6.20581e-015 -2.34566e-014
rhumerus -23.1554 -4.7394 -90.7423
rradius 22.3405
rwrist 6.18773
rhand -21.2559 37.6043
rfingers 7.12502
rthumb 5.12728 7.68632
lclavicle -6.20581e-015 -2.34566e-014
lhumerus -103.834 56.6386 -19.9069
lradius 8.87499
lwrist -66.5063
lhand -14.5842 43.7642
lfingers 7.12502
lthumb 11.5658 73.425
rfemur -6.99519 -1.38815 14.4231
rtibia 66.0336
rfoot 8.75365 6.19523
rtoes 11.0444
lfemur -17.0466 2.66087 -27.4044
ltibia 32.6741
lfoot -21.0833 -1.93888
ltoes -5.17017
